<svg width="168" height="33" viewBox="0 0 168 33" fill="none" xmlns="http://www.w3.org/2000/svg">
<g filter="url(#filter0_d_4152_508)">
<path d="M15.3113 11.712V24H10.0073V11.712H4.58325V7.488H20.7113V11.712H15.3113ZM23.1276 7.488H37.4076V11.448H28.4316V13.728H36.1116V17.52H28.4316V20.04H37.5756V24H23.1276V7.488ZM48.3199 7.2C50.7679 7.2 52.7039 7.816 54.1279 9.048C55.5519 10.264 56.2639 12.008 56.2639 14.28H51.1999C51.1999 13.32 50.9439 12.56 50.4319 12C49.9359 11.44 49.2239 11.16 48.2959 11.16C47.2239 11.16 46.4319 11.496 45.9199 12.168C45.4239 12.84 45.1759 13.776 45.1759 14.976V16.512C45.1759 17.696 45.4239 18.632 45.9199 19.32C46.4319 19.992 47.2079 20.328 48.2479 20.328C49.2719 20.328 50.0479 20.064 50.5759 19.536C51.1039 19.008 51.3679 18.264 51.3679 17.304H56.2639C56.2639 19.56 55.5679 21.288 54.1759 22.488C52.7999 23.688 50.8479 24.288 48.3199 24.288C45.5039 24.288 43.3679 23.568 41.9119 22.128C40.4719 20.688 39.7519 18.56 39.7519 15.744C39.7519 12.928 40.4719 10.8 41.9119 9.36C43.3679 7.92 45.5039 7.2 48.3199 7.2ZM70.2636 24V17.736H64.4316V24H59.1276V7.488H64.4316V13.512H70.2636V7.488H75.5676V24H70.2636ZM98.9199 24L91.9839 15.984V24H87.1119V7.488H91.7439L98.6799 15.624V7.488H103.552V24H98.9199ZM107.104 7.488H121.384V11.448H112.408V13.728H120.088V17.52H112.408V20.04H121.552V24H107.104V7.488ZM136.832 24L134.696 13.944H134.6L132.464 24H126.632L122.768 7.488H128.288L130.184 16.848H130.28L132.152 7.488H137.384L139.376 16.848H139.472L141.248 7.488H146.528L142.664 24H136.832ZM155.36 7.2C157.472 7.2 159.208 7.632 160.568 8.496C161.928 9.344 162.624 10.608 162.656 12.288V12.576H157.688V12.48C157.688 12 157.512 11.6 157.16 11.28C156.808 10.96 156.272 10.8 155.552 10.8C154.848 10.8 154.304 10.904 153.92 11.112C153.552 11.32 153.368 11.576 153.368 11.88C153.368 12.312 153.624 12.632 154.136 12.84C154.648 13.048 155.472 13.264 156.608 13.488C157.936 13.76 159.024 14.048 159.872 14.352C160.736 14.64 161.488 15.12 162.128 15.792C162.768 16.464 163.096 17.376 163.112 18.528C163.112 20.48 162.448 21.928 161.12 22.872C159.808 23.816 158.048 24.288 155.84 24.288C153.264 24.288 151.256 23.856 149.816 22.992C148.392 22.128 147.68 20.6 147.68 18.408H152.696C152.696 19.24 152.912 19.8 153.344 20.088C153.776 20.36 154.448 20.496 155.36 20.496C156.032 20.496 156.584 20.424 157.016 20.28C157.464 20.136 157.688 19.84 157.688 19.392C157.688 18.992 157.44 18.696 156.944 18.504C156.464 18.296 155.672 18.08 154.568 17.856C153.224 17.568 152.112 17.272 151.232 16.968C150.352 16.648 149.584 16.128 148.928 15.408C148.272 14.688 147.944 13.712 147.944 12.48C147.944 10.672 148.64 9.344 150.032 8.496C151.44 7.632 153.216 7.2 155.36 7.2Z" fill="#60A5FA"/>
</g>
<defs>
<filter id="filter0_d_4152_508" x="0.583252" y="7.20001" width="166.529" height="25.088" filterUnits="userSpaceOnUse" color-interpolation-filters="sRGB">
<feFlood flood-opacity="0" result="BackgroundImageFix"/>
<feColorMatrix in="SourceAlpha" type="matrix" values="0 0 0 0 0 0 0 0 0 0 0 0 0 0 0 0 0 0 127 0" result="hardAlpha"/>
<feOffset dy="4"/>
<feGaussianBlur stdDeviation="2"/>
<feComposite in2="hardAlpha" operator="out"/>
<feColorMatrix type="matrix" values="0 0 0 0 0 0 0 0 0 0 0 0 0 0 0 0 0 0 0.25 0"/>
<feBlend mode="normal" in2="BackgroundImageFix" result="effect1_dropShadow_4152_508"/>
<feBlend mode="normal" in="SourceGraphic" in2="effect1_dropShadow_4152_508" result="shape"/>
</filter>
</defs>
</svg>
